<?xml version="1.0" encoding="utf-8"?>
<!-- Generator: Adobe Illustrator 21.1.0, SVG Export Plug-In . SVG Version: 6.00 Build 0)  -->
<svg version="1.1" id="_x2014_ÎÓÈ_x5F_1" xmlns="http://www.w3.org/2000/svg" xmlns:xlink="http://www.w3.org/1999/xlink"
	 x="0px" y="0px" viewBox="0 0 300 300" style="enable-background:new 0 0 300 300;" xml:space="preserve">
<style type="text/css">
	.st0{fill:#00CCFF;}
	.st1{fill:#CCCCCC;}
	.st2{fill:#FFFFFF;}
	.st3{fill:#333333;}
	.st4{fill:#FF6600;}
</style>
<g>
	<circle class="st0" cx="149.8" cy="150.3" r="149"/>
	<path class="st1" d="M240.7,115.6l-27.6-20.7V64.5h-40.5l-17.4-13c-3.3-2.4-7.8-2.4-11.1,0l-17.4,13H86.3v30.4l-27.6,20.7
		c-2.5,1.2-4.3,3.8-4.3,6.8v109.4H245V122.4C245,119.4,243.3,116.8,240.7,115.6z"/>
	<polygon class="st2" points="208.9,139.8 152.4,185.5 90.6,139.8 90.6,69.8 208.9,69.8 	"/>
	<g>
		<path class="st3" d="M240.7,115.6l-27.6-20.7V64.5h-40.5l-17.4-13c-3.3-2.4-7.8-2.4-11.1,0l-17.4,13H86.3v30.4l-27.6,20.7
			c-2.5,1.2-4.3,3.8-4.3,6.8v109.4H245V122.4C245,119.4,243.3,116.8,240.7,115.6z M62.9,124.9l63.8,48.3l-63.8,46.1
			C62.9,219.3,62.9,124.9,62.9,124.9z M133.6,178.5l16.1,12.2l16.1-12.2l62,44.9H71.6L133.6,178.5z M172.9,173.2l63.8-48.3v94.4
			L172.9,173.2z M230.9,118.7l-17.8,13.4v-26.8L230.9,118.7z M149.2,58.2c0.3-0.2,0.7-0.2,1,0l8.4,6.3h-17.9L149.2,58.2z
			 M204.8,72.9v65.6l-55,41.7l-55-41.7V72.9 M86.3,132.2l-17.8-13.4l17.8-13.3V132.2z"/>
	</g>
</g>
<g>
	<path class="st4" d="M155.4,121c0-12.5-4.4-18.2-6.8-20.3c-0.5-0.4-1.2,0-1.1,0.6c0.5,7-8.4,8.8-8.4,19.8l0,0c0,0,0,0,0,0.1
		c0,6.7,5.1,12.2,11.4,12.2c6.3,0,11.4-5.5,11.4-12.2c0,0,0,0,0-0.1l0,0c0-3.1-1.2-6.1-2.4-8.3c-0.2-0.4-0.9-0.3-0.8,0.1
		C160.8,122.5,155.4,128.4,155.4,121z"/>
	<g>
		<path class="st4" d="M141.9,147.3c-0.3,0-0.6-0.1-0.8-0.3l-29-29c-0.4-0.4-0.4-1.1,0-1.5l30.6-30.6c0.2-0.2,0.5-0.3,0.8-0.3h8.8
			c0.5,0,0.9,0.3,1,0.7c0.1,0.3,0.1,0.8-0.2,1.2l-28.8,28.8c-0.6,0.6-0.6,1.5,0,2.1l22.8,22.8c0.4,0.4,0.4,1.1,0,1.5l-4.4,4.4
			C142.5,147.2,142.2,147.3,141.9,147.3z"/>
	</g>
	<g>
		<path class="st4" d="M147.7,152.4c-0.5,0-0.9-0.3-1-0.7c-0.1-0.3-0.1-0.8,0.2-1.2l28.8-28.8c0.3-0.3,0.4-0.7,0.4-1.1
			s-0.2-0.8-0.4-1.1L153,96.8c-0.4-0.4-0.4-1.1,0-1.5l4.4-4.4c0.2-0.2,0.5-0.3,0.8-0.3s0.6,0.1,0.8,0.3l29,29
			c0.2,0.2,0.3,0.5,0.3,0.8s-0.1,0.6-0.3,0.8l-30.6,30.6c-0.2,0.2-0.5,0.3-0.8,0.3L147.7,152.4L147.7,152.4z"/>
	</g>
</g>
</svg>
